<svg xmlns="http://www.w3.org/2000/svg" viewBox="0 0 64 64" width="64" height="64">
  <defs>
    <linearGradient id="bg" x1="0" y1="0" x2="1" y2="1">
      <stop offset="0%" stop-color="#2196F3"/>
      <stop offset="100%" stop-color="#1565C0"/>
    </linearGradient>
  </defs>
  <!-- Фон -->
  <rect rx="8" ry="8" width="64" height="64" fill="url(#bg)"/>
  <!-- Щит -->
  <path d="M32 8 L52 16 L52 32 Q52 48 32 56 Q12 48 12 32 L12 16 Z"
        fill="rgba(255,255,255,0.2)" stroke="white" stroke-width="1.5"/>
  <!-- Стрелка обновления -->
  <path d="M32 22 L32 38 M26 30 L32 38 L38 30"
        fill="none" stroke="white" stroke-width="2.5" stroke-linecap="round" stroke-linejoin="round"/>
  <!-- Wi-Fi сигнал -->
  <path d="M48 28 Q44 22 40 20 M52 24 Q46 16 38 12"
        fill="none" stroke="rgba(255,255,255,0.6)" stroke-width="2" stroke-linecap="round"/>
  <!-- Пульс -->
  <path d="M20 36 L26 36 L28 30 L32 44 L34 34 L36 36 L44 36"
        fill="none" stroke="white" stroke-width="1.8" stroke-linecap="round" stroke-linejoin="round"/>
</svg>
